<svg width="22" height="30" fill="none" xmlns="http://www.w3.org/2000/svg"><path d="M8.783 18.342H6.898V1.42c0-.546.422-.988.942-.988.521 0 .943.442.943.988v16.922z" fill="#000"/><path d="M11.167 20.203H4.514a.568.568 0 00-.554.581v1.28h7.761v-1.28a.568.568 0 00-.554-.581z" fill="#FFE07D"/><path d="M11.167 20.203h-1.164c.306 0 .554.26.554.581v1.28h1.164v-1.28a.568.568 0 00-.554-.581z" fill="#FFD064"/><path d="M8.783 18.342H6.898a.398.398 0 00-.388.407v1.454H9.17v-1.454a.398.398 0 00-.388-.407z" fill="#B3E59F"/><path d="M9.837 29.042h10.977c0-1.285-.993-2.326-2.218-2.326a2.13 2.13 0 00-.45.048 1.635 1.635 0 00-1.324-.688c-.183 0-.36.032-.524.09a1.11 1.11 0 00-1.028-.73 1.06 1.06 0 00-.333.054c-.27-.582-.838-.984-1.497-.984a1.59 1.59 0 00-.484.075c-.492-.813-1.357-1.354-2.343-1.354l-.776 5.815z" fill="#000"/><path d="M13.608 29.042h7.206c0-1.285-.993-2.326-2.218-2.326a2.13 2.13 0 00-.45.048 1.635 1.635 0 00-1.324-.688c-.183 0-.36.032-.524.09a1.13 1.13 0 00-.757-.694c.228 1.418-.382 3.105-1.933 3.57z" fill="#000"/><path d="M9.836 29.042c1.94-2.5 1.885-6.978 1.885-6.978H3.96s-.333 4.535-3.548 6.978h9.424z" fill="#ECF4FF"/><path d="M11.721 22.064h-1.164s.019 1.53-.353 3.3c-.337 1.603-1.686 2.747-3.25 2.747h-5.53c-.302.332-.637.646-1.012.93h9.424c1.94-2.5 1.885-6.977 1.885-6.977z" fill="#CBE2FF"/><path d="M18.86 20.245c-.088-.649-.62-1.147-1.262-1.147-.704 0-1.275.599-1.275 1.338 0 .107.012.211.035.311a1.01 1.01 0 00-.257.677c0 .546.422.989.943.989a.92.92 0 00.682-.308c.169.12.373.191.593.191.582 0 1.053-.494 1.053-1.104 0-.403-.206-.754-.512-.947z" fill="#000"/><path d="M4.393 15.106l.731-.384-.731-.383a.83.83 0 01-.387-.441l-.49-1.284-.489 1.284a.83.83 0 01-.387.44l-.731.384.731.384c.176.092.314.25.387.44l.49 1.284.489-1.283a.83.83 0 01.387-.441zM11.289 8.582l-.732.383.732.384c.176.092.313.25.387.44l.489 1.284.49-1.283a.83.83 0 01.386-.441l.732-.384-.732-.383a.829.829 0 01-.387-.441l-.489-1.284-.49 1.284a.83.83 0 01-.386.44z" fill="#FFE07D"/><path d="M18.596 26.284c-.097 0-.193.005-.29.017a2.012 2.012 0 00-1.8-.631 1.493 1.493 0 00-1.361-.66 2.063 2.063 0 00-1.705-.936c-.102 0-.204.008-.305.024-.281-.38-.64-.697-1.045-.921.046-.624.043-2.392.043-2.392 0-.56-.433-1.014-.966-1.014H9.583V18.75a.847.847 0 00-.388-.718v-4.943a.422.422 0 00-.412-.432.422.422 0 00-.412.432v4.822H7.31V1.42c0-.307.238-.557.53-.557.293 0 .531.25.531.557v9.65c0 .238.185.432.412.432a.422.422 0 00.412-.432V1.42C9.195.637 8.587 0 7.84 0c-.747 0-1.354.637-1.354 1.42v16.611a.847.847 0 00-.389.718v1.022H4.514c-.532 0-.966.455-.966 1.014v1.26c-.024.273-.446 4.42-3.378 6.647a.444.444 0 00-.15.483.414.414 0 00.392.299h2.332a.422.422 0 00.412-.432.422.422 0 00-.412-.432h-1.21c2.075-2.133 2.648-5.055 2.792-6.114H5.41c-.01.244-.028.582-.066.979a.427.427 0 00.41.474.42.42 0 00.41-.389c.041-.436.06-.803.07-1.064H7.44c-.01.244-.028.582-.065.979a.427.427 0 00.41.474.42.42 0 00.409-.389c.041-.436.06-.803.07-1.064h1.207c-.009.244-.027.582-.065.979a.427.427 0 00.41.474.42.42 0 00.409-.389c.041-.436.06-.803.07-1.064h1.005c-.043 1.12-.287 4.189-1.665 6.114h-4.97a.422.422 0 00-.412.432c0 .238.184.432.412.432h10.002a.422.422 0 00.412-.432.422.422 0 00-.412-.432h-4.04c.825-1.41 1.198-3.148 1.367-4.48.242.184.452.417.613.683.099.164.29.238.467.182.119-.038.241-.057.365-.057.484 0 .916.284 1.127.74.09.193.3.288.494.224a.666.666 0 01.208-.034c.286 0 .54.18.647.46.082.21.306.32.512.247a1.19 1.19 0 01.394-.067c.393 0 .756.189.996.518a.402.402 0 00.41.16c.12-.025.244-.038.368-.038.854 0 1.572.625 1.759 1.462H16.59a.422.422 0 00-.412.432c0 .238.185.432.412.432h4.223a.422.422 0 00.411-.432c0-1.52-1.18-2.758-2.63-2.758zm-11.674-7.51H8.76v.997H6.922v-.997zm-2.55 2.858v-.848c0-.082.063-.15.142-.15h6.653c.079 0 .143.068.143.15v.848H4.37z" fill="#000"/><path d="M17.044 22.844c.264 0 .516-.078.732-.225a1.4 1.4 0 00.543.109c.808 0 1.465-.69 1.465-1.537a1.55 1.55 0 00-.554-1.201c-.19-.767-.862-1.324-1.632-1.324-.93 0-1.687.794-1.687 1.77 0 .064.004.13.01.194-.15.234-.231.509-.231.794 0 .783.607 1.42 1.354 1.42zm-.386-1.8a.447.447 0 00.1-.397.956.956 0 01-.023-.211c0-.5.387-.906.863-.906.427 0 .794.333.855.776.017.128.089.242.195.309a.675.675 0 01.313.576c0 .372-.288.674-.642.674a.617.617 0 01-.361-.117.398.398 0 00-.53.06.515.515 0 01-.384.173.545.545 0 01-.531-.557.57.57 0 01.145-.38zM13.638 18.575v.15h-.142a.422.422 0 00-.412.431c0 .239.184.432.412.432h.142v.15c0 .238.185.431.412.431a.422.422 0 00.412-.431v-.15h.142a.422.422 0 00.412-.432.422.422 0 00-.412-.431h-.142v-.15a.422.422 0 00-.412-.432.422.422 0 00-.412.432zM19.705 24.016a.422.422 0 00-.412.432c0 .238.184.432.412.432h.143v.15c0 .238.184.431.411.431a.422.422 0 00.412-.431v-.15h.143a.422.422 0 00.411-.432.422.422 0 00-.411-.432h-.143v-.15a.422.422 0 00-.412-.431.422.422 0 00-.411.431v.15h-.143zM1.725 15.108l.731.384a.405.405 0 01.189.215l.49 1.284a.412.412 0 00.381.27c.169 0 .32-.107.382-.27l.49-1.284a.405.405 0 01.189-.215l.731-.384a.434.434 0 00.228-.386.434.434 0 00-.228-.386l-.731-.383a.404.404 0 01-.19-.216l-.489-1.283a.412.412 0 00-.382-.271.412.412 0 00-.382.271l-.49 1.283a.404.404 0 01-.188.216l-.732.383a.435.435 0 00-.227.386c0 .164.088.313.228.386zm1.684-1.05l.107-.281.108.28c.11.29.316.525.58.665-.264.14-.47.376-.58.665l-.108.28-.107-.28a1.253 1.253 0 00-.58-.665c.264-.14.47-.376.58-.664zM10.373 9.351l.732.384a.404.404 0 01.188.215l.49 1.284a.412.412 0 00.382.271c.168 0 .32-.107.382-.271l.49-1.284a.404.404 0 01.188-.215l.732-.384a.434.434 0 00.227-.386.434.434 0 00-.227-.386l-.732-.384a.404.404 0 01-.188-.215l-.49-1.283a.412.412 0 00-.382-.271.412.412 0 00-.382.271l-.49 1.283a.404.404 0 01-.188.216l-.732.383a.434.434 0 00-.227.386c0 .164.088.313.227.386zm1.685-1.05l.107-.281.107.281c.11.289.316.524.58.664-.264.14-.47.376-.58.665l-.107.28-.107-.28a1.254 1.254 0 00-.58-.665c.264-.14.47-.376.58-.664z" fill="#000"/></svg>