<svg width="133" height="30" fill="none" xmlns="http://www.w3.org/2000/svg"><path d="M99.783 18.342h-1.885V1.42c0-.546.422-.988.943-.988.52 0 .942.442.942.988v16.922z" fill="#000"/><path d="M102.167 20.203h-6.653a.568.568 0 00-.554.581v1.28h7.761v-1.28a.568.568 0 00-.554-.581z" fill="#FFE07D"/><path d="M102.167 20.203h-1.164c.306 0 .554.26.554.581v1.28h1.164v-1.28a.568.568 0 00-.554-.581z" fill="#FFD064"/><path d="M99.783 18.342h-1.885a.398.398 0 00-.388.407v1.454h2.661v-1.454a.398.398 0 00-.388-.407z" fill="#B3E59F"/><path d="M100.837 29.042h10.977c0-1.285-.993-2.326-2.218-2.326a2.13 2.13 0 00-.451.048 1.635 1.635 0 00-1.323-.688 1.59 1.59 0 00-.524.09 1.112 1.112 0 00-1.028-.73c-.116 0-.228.02-.333.054-.269-.582-.838-.984-1.497-.984a1.59 1.59 0 00-.484.075c-.492-.813-1.357-1.354-2.343-1.354l-.776 5.815z" fill="#000"/><path d="M104.608 29.042h7.206c0-1.285-.993-2.326-2.218-2.326a2.13 2.13 0 00-.451.048 1.635 1.635 0 00-1.323-.688 1.59 1.59 0 00-.524.09 1.132 1.132 0 00-.757-.694c.228 1.418-.382 3.105-1.933 3.57z" fill="#000"/><path d="M100.836 29.042c1.941-2.5 1.885-6.978 1.885-6.978H94.96s-.333 4.535-3.548 6.978h9.424z" fill="#ECF4FF"/><path d="M102.721 22.064h-1.164s.019 1.53-.353 3.3c-.337 1.603-1.686 2.747-3.25 2.747h-5.53a7.46 7.46 0 01-1.013.93h9.425c1.941-2.5 1.885-6.977 1.885-6.977z" fill="#CBE2FF"/><path d="M109.86 20.245c-.088-.649-.619-1.147-1.262-1.147-.704 0-1.275.599-1.275 1.338 0 .107.012.211.035.311a1.01 1.01 0 00-.257.677c0 .546.422.989.943.989.269 0 .51-.119.682-.308.169.12.373.191.593.191.582 0 1.053-.494 1.053-1.104 0-.403-.205-.754-.512-.947z" fill="#000"/><path d="M95.393 15.106l.731-.384-.731-.383a.83.83 0 01-.387-.441l-.49-1.284-.489 1.284a.83.83 0 01-.387.44l-.731.384.731.384c.176.092.314.25.387.44l.49 1.284.489-1.283a.829.829 0 01.387-.441zM102.289 8.582l-.732.383.732.384a.83.83 0 01.387.44l.489 1.284.489-1.283a.83.83 0 01.387-.441l.732-.384-.732-.383a.83.83 0 01-.387-.441l-.489-1.284-.489 1.284a.83.83 0 01-.387.44z" fill="#FFE07D"/><path d="M109.596 26.284a2.51 2.51 0 00-.289.017 2.012 2.012 0 00-1.802-.631 1.492 1.492 0 00-1.36-.66 2.063 2.063 0 00-1.705-.936c-.102 0-.204.008-.305.024a3.277 3.277 0 00-1.045-.921c.046-.624.043-2.392.043-2.392 0-.56-.433-1.014-.966-1.014h-1.584V18.75a.847.847 0 00-.388-.718v-4.943a.423.423 0 00-.412-.432.422.422 0 00-.412.432v4.822H98.31V1.42c0-.307.238-.557.53-.557.293 0 .531.25.531.557v9.65c0 .238.185.432.412.432a.423.423 0 00.412-.432V1.42c0-.783-.608-1.42-1.354-1.42-.747 0-1.354.637-1.354 1.42v16.611a.847.847 0 00-.389.718v1.022h-1.584c-.532 0-.966.455-.966 1.014v1.26c-.024.273-.446 4.42-3.378 6.647a.444.444 0 00-.15.483.414.414 0 00.392.299h2.332a.422.422 0 00.412-.432.422.422 0 00-.412-.432h-1.21c2.075-2.133 2.648-5.055 2.792-6.114h1.084a16.91 16.91 0 01-.066.979.427.427 0 00.41.474.42.42 0 00.41-.389c.041-.436.06-.803.07-1.064h1.207c-.01.244-.028.582-.066.979a.427.427 0 00.41.474.42.42 0 00.41-.389c.041-.436.06-.803.07-1.064h1.207a16.78 16.78 0 01-.065.979.426.426 0 00.41.474.42.42 0 00.409-.389c.042-.436.061-.803.07-1.064h1.005c-.043 1.12-.287 4.189-1.665 6.114h-4.97a.422.422 0 00-.412.432c0 .238.184.432.412.432h10.002a.423.423 0 00.412-.432.423.423 0 00-.412-.432h-4.039c.824-1.41 1.197-3.148 1.366-4.48.242.184.452.417.613.683.099.164.29.238.467.182.119-.038.241-.057.365-.057.484 0 .916.284 1.127.74a.405.405 0 00.494.224.664.664 0 01.208-.034c.286 0 .54.18.647.46.082.21.306.32.512.247a1.19 1.19 0 01.394-.067c.393 0 .756.189.996.518a.402.402 0 00.411.16c.12-.025.243-.038.367-.038.854 0 1.572.625 1.759 1.462h-3.764a.423.423 0 00-.412.432c0 .238.185.432.412.432h4.223a.422.422 0 00.411-.432c0-1.52-1.179-2.758-2.629-2.758zm-11.674-7.51h1.838v.997h-1.838v-.997zm-2.55 2.858v-.848c0-.082.063-.15.142-.15h6.653c.079 0 .143.068.143.15v.848h-6.939z" fill="#000"/><path d="M108.044 22.844c.264 0 .516-.078.732-.225.171.072.355.109.543.109.808 0 1.465-.69 1.465-1.537a1.55 1.55 0 00-.554-1.201c-.191-.767-.862-1.324-1.632-1.324-.93 0-1.687.794-1.687 1.77 0 .064.004.13.011.194a1.46 1.46 0 00-.232.794c0 .783.607 1.42 1.354 1.42zm-.386-1.8a.448.448 0 00.101-.397.945.945 0 01-.024-.211c0-.5.387-.906.863-.906.427 0 .794.333.855.776a.432.432 0 00.195.309.675.675 0 01.313.576c0 .372-.288.674-.642.674a.617.617 0 01-.361-.117.397.397 0 00-.53.06.515.515 0 01-.384.173.545.545 0 01-.531-.557c0-.142.051-.277.145-.38zM104.638 18.575v.15h-.142a.422.422 0 00-.412.431c0 .239.184.432.412.432h.142v.15c0 .238.185.431.412.431a.423.423 0 00.412-.431v-.15h.142a.422.422 0 00.412-.432.422.422 0 00-.412-.431h-.142v-.15a.423.423 0 00-.412-.432.423.423 0 00-.412.432zM110.705 24.016a.423.423 0 00-.412.432c0 .238.185.432.412.432h.143v.15c0 .238.184.431.411.431a.422.422 0 00.412-.431v-.15h.143a.422.422 0 00.411-.432.422.422 0 00-.411-.432h-.143v-.15a.422.422 0 00-.412-.431.422.422 0 00-.411.431v.15h-.143zM92.725 15.108l.731.384a.405.405 0 01.189.215l.49 1.284a.412.412 0 00.381.27c.169 0 .32-.107.382-.27l.49-1.284a.405.405 0 01.189-.215l.731-.384a.434.434 0 00.228-.386.434.434 0 00-.228-.386l-.731-.383a.404.404 0 01-.19-.216l-.489-1.283a.412.412 0 00-.382-.271.412.412 0 00-.382.271l-.49 1.283a.404.404 0 01-.188.216l-.731.383a.435.435 0 00-.228.386c0 .164.088.313.228.386zm1.684-1.05l.107-.281.108.28c.11.29.316.525.58.665-.264.14-.47.376-.58.665l-.108.28-.107-.28a1.253 1.253 0 00-.58-.665c.264-.14.47-.376.58-.664zM101.373 9.351l.732.384a.4.4 0 01.188.215l.49 1.284a.412.412 0 00.382.271c.168 0 .32-.107.382-.271l.49-1.284a.4.4 0 01.188-.215l.732-.384a.435.435 0 00.227-.386.435.435 0 00-.227-.386l-.732-.384a.4.4 0 01-.188-.215l-.49-1.283a.412.412 0 00-.382-.271.412.412 0 00-.382.271l-.49 1.283a.4.4 0 01-.188.216l-.732.383a.435.435 0 00-.227.386c0 .164.088.313.227.386zm1.685-1.05l.107-.281.107.281c.11.289.316.524.58.664-.264.14-.47.376-.58.665l-.107.28-.107-.28a1.254 1.254 0 00-.58-.665c.264-.14.47-.376.58-.664zM2.043 29h6.943c7.541 0 11.971-4.693 11.971-12.691 0-7.98-4.447-12.674-11.97-12.674H2.042c-.967 0-1.582.633-1.582 1.635v22.095C.46 28.367 1.076 29 2.043 29zm1.582-2.848V6.482h5.15c5.766 0 8.948 3.516 8.948 9.862 0 6.293-3.2 9.808-8.948 9.808h-5.15zM34.967 29.422c6.293 0 10.072-3.902 10.072-9.317V5.023c0-1.002-.615-1.634-1.582-1.634-.967 0-1.582.632-1.582 1.634v14.872c0 3.832-2.514 6.609-6.908 6.609-4.395 0-6.908-2.777-6.908-6.61V5.025c0-1.003-.616-1.635-1.582-1.635-.967 0-1.582.632-1.582 1.634v15.082c0 5.415 3.779 9.317 10.072 9.317zM58.275 29.422c5.678 0 9.37-2.936 9.37-7.629 0-3.586-2.092-5.695-7.383-6.855l-2.813-.616c-3.463-.756-4.816-2.127-4.816-4.13 0-2.585 2.443-4.131 5.607-4.131 2.742 0 4.834 1.125 5.713 3.691.281.808.774 1.23 1.582 1.23.844 0 1.442-.562 1.442-1.423 0-.334-.036-.598-.088-.791-.914-3.428-4.324-5.555-8.56-5.555-5.257 0-8.948 2.935-8.948 7.119 0 3.603 2.197 5.906 7.277 7.014l2.813.615c3.515.773 4.922 2.18 4.922 4.307 0 2.496-2.496 4.306-5.942 4.306-3.199 0-5.695-1.23-6.469-3.85-.246-.843-.738-1.247-1.529-1.247-.896 0-1.459.632-1.459 1.634 0 .37.07.756.176 1.108.95 3.058 4.342 5.203 9.105 5.203zM79.334 29.246c.967 0 1.582-.633 1.582-1.635V6.482h6.75c.897 0 1.512-.58 1.512-1.423 0-.844-.615-1.424-1.512-1.424H71.002c-.896 0-1.512.58-1.512 1.424 0 .843.616 1.423 1.512 1.423h6.75v21.13c0 1.001.615 1.634 1.582 1.634zM122.021 29.246c.967 0 1.583-.633 1.583-1.635v-9.527l8.208-12.287c.247-.37.317-.668.317-1.02 0-.79-.668-1.388-1.529-1.388-.633 0-1.002.228-1.389.808l-7.137 10.828h-.105l-7.137-10.828c-.387-.58-.756-.808-1.389-.808-.861 0-1.529.597-1.529 1.388 0 .352.07.65.316 1.02l8.209 12.287v9.527c0 1.002.616 1.635 1.582 1.635z" fill="#000"/></svg>